<svg width="512" height="512" xmlns="http://www.w3.org/2000/svg">

 <g>
  <title>background</title>
  <rect fill="none" id="canvas_background" height="402" width="582" y="-1" x="-1"/>
 </g>
 <g>
  <title>Layer 1</title>
  <path fill="#232425" id="svg_2" d="m414.452,137.461c-61.438,-40.59 -143.092,-49.831 -210.927,-37.59c-75.89,-73.205 -160.941,-39.564 -177.525,-29.85c0,0 58.359,49.594 48.882,93.026c-69.098,70.441 -36.247,148.858 0,185.895c9.477,43.432 -48.882,93.025 -48.882,93.025c16.426,9.714 101.239,43.276 177.524,-29.534c67.676,12.163 149.331,3 210.927,-37.668c95.239,-60.807 95.555,-176.182 0.001,-237.304l0,0zm-153.516,236.91c-23.771,0.078 -47.381,-3.002 -70.361,-9.082l-15.795,15.241c-8.766,8.526 -18.638,15.871 -29.219,21.874c-12.873,6.476 -26.929,10.503 -41.301,11.766c0.789,-1.421 1.5,-2.844 2.21,-4.185c15.795,-29.298 20.06,-55.517 12.793,-78.812c-25.981,-20.452 -41.537,-46.592 -41.537,-75.179c0,-65.467 82.049,-118.534 183.209,-118.534c101.16,0 183.209,53.067 183.209,118.534c0.001,65.467 -82.048,118.377 -183.208,118.377zm-87.894,-90.185c-15.083,0.238 -27.56,-11.845 -27.796,-26.928c-0.553,-36.247 54.172,-37.038 54.726,-0.869l0,0.394c0.157,15.242 -12.241,27.403 -26.93,27.403l0,0zm58.912,-26.928c-0.631,-36.247 54.094,-37.116 54.726,-0.948l0,0.473c0.316,36.011 -54.095,36.405 -54.726,0.475zm114.506,26.928c-15.084,0.238 -27.562,-11.845 -27.798,-26.928c-0.552,-36.247 54.174,-37.038 54.727,-0.869l0,0.394c0.158,15.005 -11.846,27.325 -26.929,27.403l0,0z"/>
 </g>
</svg>